<?xml version="1.0" encoding="UTF-8" standalone="no"?><!-- Generator: Gravit.io --><svg xmlns="http://www.w3.org/2000/svg" xmlns:xlink="http://www.w3.org/1999/xlink" style="isolation:isolate" viewBox="0 0 800 600" width="800pt" height="600pt"><defs><clipPath id="_clipPath_vZeiBYnBrtrLTn8sLXk5y0JDfXoO6GaL"><rect width="800" height="600"/></clipPath></defs><g clip-path="url(#_clipPath_vZeiBYnBrtrLTn8sLXk5y0JDfXoO6GaL)"><g><path d="M 178.962 36 L 621.038 36 C 719.81 36 800 116.19 800 214.962 L 800 385.038 C 800 483.81 719.81 564 621.038 564 L 178.962 564 C 80.19 564 0 483.81 0 385.038 L 0 214.962 C 0 116.19 80.19 36 178.962 36 Z" style="stroke:none;fill:#002FFF;stroke-miterlimit:10;"/><path d=" M 534.71 307.409 L 420.93 370.371 L 307.151 433.332 C 301.727 436.334 297.365 433.738 297.417 427.539 L 298.487 300 L 299.558 172.461 C 299.61 166.262 304.016 163.737 309.391 166.826 L 422.095 231.6 L 534.799 296.373 C 540.174 299.462 540.134 304.407 534.71 307.409 Z " fill="rgb(235,235,235)"/></g></g></svg>